<svg xmlns="http://www.w3.org/2000/svg" width="341" height="341" viewBox="0 0 341 341">
<g>
<path d="M 113.01 260.47 C111.01,264.61 108.00,267.22 108.00,264.82 C108.00,263.10 113.02,253.23 114.54,251.97 C115.28,251.36 115.66,250.27 115.39,249.57 C115.12,248.86 116.24,246.08 117.89,243.39 C127.60,227.57 128.87,222.63 124.33,218.43 C120.98,215.33 118.08,214.58 112.38,215.36 C107.55,216.02 94.05,220.28 90.00,222.42 C88.62,223.14 85.03,224.50 82.00,225.43 C76.65,227.07 68.28,230.32 64.76,232.11 C63.81,232.60 62.07,233.00 60.89,233.00 C59.11,233.00 58.96,232.75 60.00,231.50 C60.68,230.68 61.86,230.00 62.62,230.00 C63.38,230.00 64.00,229.59 64.00,229.08 C64.00,228.57 65.34,227.86 66.99,227.50 C68.63,227.14 70.20,226.48 70.48,226.03 C70.76,225.58 74.03,223.80 77.74,222.07 C81.46,220.34 85.18,218.56 86.00,218.11 C98.60,211.34 101.85,209.48 103.87,207.88 C105.19,206.85 106.88,206.00 107.63,206.00 C108.39,206.00 109.00,205.62 109.00,205.15 C109.00,204.69 110.80,203.49 113.00,202.50 C115.20,201.51 117.00,200.36 117.00,199.96 C117.00,199.55 118.77,198.51 120.93,197.64 C123.09,196.78 125.23,195.45 125.68,194.69 C126.13,193.94 127.85,192.48 129.50,191.45 C131.15,190.43 134.07,188.26 136.00,186.63 C140.34,182.96 152.00,165.31 152.00,162.41 C152.00,159.79 148.38,155.00 146.41,155.00 C145.61,155.00 143.17,153.82 140.98,152.37 C138.18,150.52 137.00,149.02 137.00,147.34 C137.00,145.69 136.20,144.65 134.42,143.97 C131.55,142.88 129.00,140.63 129.00,139.19 C129.00,138.67 127.69,137.70 126.09,137.04 C124.48,136.37 122.93,134.84 122.62,133.63 C122.29,132.31 120.75,130.95 118.78,130.23 C116.98,129.57 114.60,127.67 113.50,126.00 C112.40,124.33 109.78,121.82 107.67,120.41 C105.57,119.01 103.24,116.43 102.50,114.66 C101.69,112.72 99.56,110.56 97.08,109.17 C93.73,107.28 93.00,106.34 93.00,103.89 C93.00,102.14 92.07,99.98 90.75,98.65 C86.73,94.60 83.00,89.17 83.00,87.37 C83.00,86.40 80.73,83.47 77.96,80.87 C73.59,76.77 72.96,75.69 73.16,72.66 C73.33,70.18 72.56,67.97 70.48,64.96 C68.39,61.96 67.55,59.54 67.53,56.52 C67.50,53.00 66.96,51.84 64.26,49.57 C61.10,46.90 61.06,46.78 62.58,43.85 C63.99,41.12 63.98,40.62 62.50,38.36 C61.60,36.99 60.00,35.00 58.93,33.93 C56.64,31.64 56.43,29.16 58.46,28.38 C60.08,27.76 63.84,30.12 71.66,36.67 C74.50,39.05 77.08,41.00 77.40,41.00 C78.25,41.00 89.44,49.62 90.95,51.44 C91.66,52.30 92.65,53.00 93.14,53.00 C94.47,53.00 107.67,61.82 112.95,66.24 C114.61,67.63 119.08,70.21 123.71,72.44 C125.47,73.29 130.25,76.02 134.33,78.50 C138.41,80.97 142.30,83.00 142.96,83.00 C144.08,83.00 155.61,87.69 160.82,90.26 C162.09,90.89 168.17,96.30 174.32,102.27 C180.47,108.25 186.51,113.83 187.74,114.68 C191.10,116.99 194.58,115.60 200.57,109.56 C211.21,98.84 220.59,93.60 229.00,93.69 C235.31,93.75 240.77,94.82 241.59,96.14 C242.14,97.04 239.75,104.21 237.29,109.00 C236.59,110.38 236.01,112.07 236.01,112.78 C236.00,114.32 228.98,127.89 227.82,128.61 C227.37,128.89 227.00,130.47 227.00,132.11 C227.00,135.25 227.92,135.82 243.67,142.47 C248.84,144.65 254.85,150.09 258.60,156.00 C260.17,158.48 261.92,161.22 262.48,162.11 C263.04,163.00 264.79,166.15 266.38,169.11 C267.96,172.07 269.87,174.86 270.63,175.30 C271.38,175.74 272.01,176.64 272.02,177.30 C272.03,177.96 274.51,181.54 277.52,185.25 C280.53,188.96 283.00,192.41 283.00,192.91 C283.00,193.99 294.20,206.08 306.25,217.99 C317.15,228.77 318.13,232.66 308.75,227.87 C305.12,226.02 304.16,225.90 301.23,226.96 C298.07,228.10 297.61,227.97 293.28,224.59 C288.90,221.18 286.23,219.95 287.44,221.90 C287.74,222.39 287.28,223.06 286.41,223.40 C283.12,224.66 280.19,223.90 277.16,221.00 C274.01,218.00 270.74,217.25 268.08,218.93 C266.09,220.19 262.36,218.56 257.82,214.46 C253.44,210.50 253.23,210.45 250.20,212.57 C248.07,214.07 247.81,213.99 245.25,211.07 C243.32,208.87 241.67,208.00 239.43,208.00 C237.31,208.00 235.28,207.03 233.16,205.00 C231.29,203.21 228.95,202.00 227.37,202.00 C225.82,202.00 223.75,200.94 222.35,199.44 C220.76,197.72 219.35,197.07 218.09,197.47 C217.06,197.80 215.58,197.44 214.81,196.66 C212.83,194.68 207.42,192.00 205.41,192.00 C204.48,192.00 200.81,190.16 197.25,187.92 C189.75,183.18 189.06,183.22 180.17,188.97 C176.74,191.19 173.30,193.00 172.53,193.00 C171.75,193.00 170.88,193.38 170.59,193.85 C170.30,194.32 166.65,196.46 162.48,198.60 C158.32,200.75 154.18,203.62 153.29,205.00 C152.40,206.38 148.91,210.65 145.53,214.50 C142.15,218.35 137.64,224.20 135.51,227.50 C133.38,230.80 131.37,233.73 131.06,234.00 C128.17,236.53 121.47,247.80 122.34,248.67 C122.61,248.94 121.09,250.73 118.97,252.64 C116.85,254.56 114.17,258.08 113.01,260.47 ZM 107.00 270.45 C107.00,271.18 106.17,272.80 105.16,274.05 C102.59,277.22 101.38,274.86 103.63,271.06 C105.34,268.15 107.00,267.85 107.00,270.45 Z" fill="rgb(1,119,252)"/>
<path d="M 90.34 306.12 C86.67,313.20 82.73,318.82 84.25,314.81 C84.60,313.88 85.38,311.29 85.99,309.04 C86.59,306.80 87.99,302.87 89.08,300.31 C90.88,296.11 91.23,295.80 92.62,297.19 C94.01,298.59 93.79,299.46 90.34,306.12 ZM 30.88 245.38 C29.16,245.72 26.57,246.00 25.12,245.99 C23.01,245.98 23.54,245.49 27.85,243.49 C28.09,243.38 28.32,243.27 28.54,243.17 C32.13,241.50 33.36,240.92 33.78,241.29 C34.01,241.48 34.00,241.93 34.00,242.62 C34.00,242.70 34.00,242.79 34.00,242.88 C34.00,244.18 33.04,244.94 30.88,245.38 ZM 71.17 72.95 C71.18,73.07 71.19,73.18 71.20,73.28 C71.43,75.72 71.53,76.72 71.29,76.80 C71.13,76.86 70.80,76.47 70.25,75.80 C70.21,75.76 70.18,75.71 70.14,75.67 C68.59,73.80 68.28,69.80 69.64,69.31 C70.34,69.06 70.93,70.48 71.17,72.95 ZM 59.57 41.24 C59.88,41.55 59.99,43.31 59.80,45.15 L 59.46 48.50 L 58.63 45.18 C57.85,42.03 58.33,40.00 59.57,41.24 ZM 247.64 91.31 C248.62,92.29 245.31,93.68 243.54,93.04 C241.80,92.41 241.90,92.24 244.40,91.61 C245.96,91.22 247.42,91.09 247.64,91.31 ZM 90.08 100.68 C90.68,101.28 91.01,102.83 90.83,104.13 C90.52,106.22 90.39,106.28 89.74,104.67 C88.58,101.80 88.79,99.39 90.08,100.68 ZM 134.87 147.84 C136.33,150.48 136.06,151.28 134.12,150.08 C133.40,149.63 132.98,148.41 133.20,147.38 C133.55,145.68 133.71,145.72 134.87,147.84 Z" fill="rgb(48,113,183)"/>
<path d="M 71.17 72.95 C70.93,70.48 70.34,69.06 69.64,69.31 C68.72,69.64 68.56,71.55 69.03,73.34 C68.22,71.66 68.15,70.45 68.84,69.76 C69.38,69.22 68.61,66.79 66.89,63.68 C65.32,60.83 64.03,57.46 64.02,56.18 C64.01,54.91 62.88,52.40 61.51,50.60 C60.83,49.71 60.14,48.54 59.58,47.36 L 59.80 45.15 C59.99,43.31 59.88,41.55 59.57,41.24 C59.54,41.21 59.52,41.19 59.49,41.16 C59.63,41.19 59.78,41.23 59.94,41.27 C61.96,41.80 62.04,41.69 60.75,40.18 C58.20,37.20 54.84,29.13 55.18,26.78 C55.40,25.22 56.17,24.50 57.63,24.50 C58.81,24.50 68.96,31.40 80.63,40.16 C113.52,64.83 130.59,75.36 152.57,84.54 C163.66,89.17 169.07,92.72 174.49,98.93 C182.25,107.80 188.80,112.99 192.24,113.00 C193.20,113.00 197.55,109.72 201.91,105.71 C206.26,101.69 212.23,97.08 215.16,95.46 C220.12,92.71 221.28,92.49 231.50,92.40 C236.26,92.35 241.14,92.09 243.76,91.78 C241.89,92.28 241.96,92.46 243.54,93.04 C244.54,93.40 246.03,93.12 246.97,92.62 L 244.69 96.12 C242.42,99.59 240.99,103.18 240.65,106.23 C240.32,109.12 238.15,114.76 235.06,120.80 C232.28,126.21 230.00,131.55 230.00,132.67 C230.00,134.81 232.19,136.02 243.42,140.11 C251.75,143.15 256.86,148.36 265.35,162.47 C276.28,180.66 288.75,196.62 305.36,213.70 C315.34,223.96 320.03,229.48 319.64,230.49 C318.90,232.43 313.56,232.46 308.15,230.55 C305.37,229.57 303.84,229.44 303.40,230.15 C302.46,231.68 297.50,230.41 293.31,227.56 C290.04,225.34 289.54,225.25 288.50,226.67 C287.49,228.06 286.82,228.10 283.42,226.98 C281.26,226.27 278.11,224.64 276.41,223.35 C273.21,220.92 270.00,220.25 270.00,222.00 C270.00,224.35 265.21,222.67 259.81,218.43 C255.13,214.75 253.87,214.17 253.39,215.43 C252.41,217.98 249.27,217.24 245.12,213.49 C242.77,211.36 240.63,210.21 239.71,210.56 C237.76,211.30 232.36,208.54 231.08,206.16 C230.38,204.84 229.29,204.45 227.16,204.76 C224.76,205.12 223.78,204.62 221.93,202.12 C220.22,199.80 219.34,199.31 218.36,200.11 C217.40,200.91 216.43,200.49 214.54,198.45 C213.14,196.94 212.00,195.32 212.00,194.85 C212.00,194.37 211.13,194.53 210.06,195.20 C208.45,196.20 207.75,196.09 206.05,194.55 C204.92,193.52 203.71,192.96 203.37,193.30 C202.70,193.97 194.58,189.76 191.85,187.34 C190.38,186.03 189.17,186.47 180.57,191.44 C175.27,194.50 170.61,197.00 170.21,197.00 C167.68,197.01 156.25,205.46 151.95,210.50 C133.15,232.56 110.40,267.70 91.72,303.41 C93.82,299.18 93.80,298.37 92.62,297.19 C91.35,295.92 90.95,296.07 89.53,299.29 C90.28,297.33 90.95,295.66 91.43,294.62 C92.74,291.80 94.12,288.38 94.50,287.00 C94.89,285.62 96.97,281.18 99.13,277.11 C101.29,273.05 102.83,269.49 102.54,269.21 C102.25,268.92 102.46,268.15 102.99,267.51 C104.22,266.02 114.61,246.49 120.72,234.18 C126.19,223.14 126.01,220.34 119.70,218.27 C114.34,216.51 109.83,217.70 82.21,228.17 C54.60,238.64 40.48,243.43 32.24,245.00 C33.45,244.54 34.00,243.86 34.00,242.88 C34.00,242.79 34.00,242.70 34.00,242.62 C34.00,241.93 34.01,241.48 33.78,241.29 C33.52,241.06 32.94,241.20 31.69,241.73 C37.08,239.21 40.74,237.64 41.77,237.43 C45.31,236.71 96.93,210.18 106.26,204.29 C112.17,200.56 118.59,196.57 120.51,195.43 C124.07,193.31 129.29,189.22 136.30,183.03 C139.83,179.91 142.32,176.30 148.42,165.44 C150.28,162.14 150.28,161.97 148.51,160.01 C147.51,158.91 146.20,158.00 145.60,158.00 C144.99,158.00 142.74,156.43 140.59,154.51 C138.64,152.78 136.34,151.12 135.17,150.58 C136.10,150.83 136.01,149.89 134.87,147.84 C133.71,145.72 133.55,145.68 133.20,147.38 C133.01,148.27 133.29,149.29 133.84,149.85 C133.33,149.37 133.00,148.72 133.00,148.10 C133.00,147.13 131.88,145.74 130.52,145.01 C129.15,144.28 127.78,142.87 127.47,141.89 C127.15,140.91 126.03,139.83 124.97,139.49 C123.92,139.16 122.16,137.75 121.07,136.37 C119.99,134.98 117.27,132.53 115.05,130.92 C112.82,129.31 111.00,127.33 111.00,126.52 C111.00,125.71 109.54,124.31 107.75,123.41 C102.96,120.99 100.00,117.94 100.00,115.44 C100.00,113.89 98.94,112.72 96.44,111.54 C94.08,110.42 91.83,108.16 90.44,105.77 C90.58,105.65 90.68,105.12 90.83,104.13 C91.01,102.83 90.68,101.28 90.08,100.68 C89.45,100.05 89.08,100.30 89.00,101.06 C88.95,99.98 88.63,99.00 88.25,98.83 C86.47,98.04 79.08,88.67 79.59,87.85 C79.90,87.35 77.82,84.40 74.98,81.29 C73.47,79.64 72.21,78.14 71.22,76.80 C71.25,76.81 71.27,76.81 71.29,76.80 C71.53,76.72 71.43,75.72 71.20,73.28 L 71.20 73.28 C71.19,73.18 71.18,73.07 71.17,72.95 ZM 113.01 260.47 C114.17,258.08 116.85,254.56 118.97,252.64 C121.09,250.73 122.61,248.94 122.34,248.67 C121.47,247.80 128.17,236.53 131.06,234.00 C131.37,233.73 133.38,230.80 135.51,227.50 C137.64,224.20 142.15,218.35 145.53,214.50 C148.91,210.65 152.40,206.38 153.29,205.00 C154.18,203.62 158.32,200.75 162.48,198.60 C166.65,196.46 170.30,194.32 170.59,193.85 C170.88,193.38 171.75,193.00 172.53,193.00 C173.30,193.00 176.74,191.19 180.17,188.97 C189.06,183.22 189.75,183.18 197.25,187.92 C200.81,190.16 204.48,192.00 205.41,192.00 C207.42,192.00 212.83,194.68 214.81,196.66 C215.58,197.44 217.06,197.80 218.09,197.47 C219.35,197.07 220.76,197.72 222.35,199.44 C223.75,200.94 225.82,202.00 227.37,202.00 C228.95,202.00 231.29,203.21 233.16,205.00 C235.28,207.03 237.31,208.00 239.43,208.00 C241.67,208.00 243.32,208.87 245.25,211.07 C247.81,213.99 248.07,214.07 250.20,212.57 C253.23,210.45 253.44,210.50 257.82,214.46 C262.36,218.56 266.09,220.19 268.08,218.93 C270.74,217.25 274.01,218.00 277.16,221.00 C280.19,223.90 283.12,224.66 286.41,223.40 C287.28,223.06 287.74,222.39 287.44,221.90 C286.23,219.95 288.90,221.18 293.28,224.59 C297.61,227.97 298.07,228.10 301.23,226.96 C304.16,225.90 305.12,226.02 308.75,227.87 C318.13,232.66 317.15,228.77 306.25,217.99 C294.20,206.08 283.00,193.99 283.00,192.91 C283.00,192.41 280.53,188.96 277.52,185.25 C274.51,181.54 272.03,177.96 272.02,177.30 C272.01,176.64 271.38,175.74 270.63,175.30 C269.87,174.86 267.96,172.07 266.38,169.11 C264.79,166.15 263.04,163.00 262.48,162.11 C261.92,161.22 260.17,158.48 258.60,156.00 C254.85,150.09 248.84,144.65 243.67,142.47 C227.92,135.82 227.00,135.25 227.00,132.11 C227.00,130.47 227.37,128.89 227.82,128.61 C228.98,127.89 236.00,114.32 236.01,112.78 C236.01,112.07 236.59,110.38 237.29,109.00 C239.75,104.21 242.14,97.04 241.59,96.14 C240.77,94.82 235.31,93.75 229.00,93.69 C220.59,93.60 211.21,98.84 200.57,109.56 C194.58,115.60 191.10,116.99 187.74,114.68 C186.51,113.83 180.47,108.25 174.32,102.27 C168.17,96.30 162.09,90.89 160.82,90.26 C155.61,87.69 144.08,83.00 142.96,83.00 C142.30,83.00 138.41,80.97 134.33,78.50 C130.25,76.02 125.47,73.29 123.71,72.44 C119.08,70.21 114.61,67.63 112.95,66.24 C107.67,61.82 94.47,53.00 93.14,53.00 C92.65,53.00 91.66,52.30 90.95,51.44 C89.44,49.62 78.25,41.00 77.40,41.00 C77.08,41.00 74.50,39.05 71.66,36.67 C63.84,30.12 60.08,27.76 58.46,28.38 C56.43,29.16 56.64,31.64 58.93,33.93 C60.00,35.00 61.60,36.99 62.50,38.36 C63.98,40.62 63.99,41.12 62.58,43.85 C61.06,46.78 61.10,46.90 64.26,49.57 C66.96,51.84 67.50,53.00 67.53,56.52 C67.55,59.54 68.39,61.96 70.48,64.96 C72.56,67.97 73.33,70.18 73.16,72.66 C72.96,75.69 73.59,76.77 77.96,80.87 C80.73,83.47 83.00,86.40 83.00,87.37 C83.00,89.17 86.73,94.60 90.75,98.65 C92.07,99.98 93.00,102.14 93.00,103.89 C93.00,106.34 93.73,107.28 97.08,109.17 C99.56,110.56 101.69,112.72 102.50,114.66 C103.24,116.43 105.57,119.01 107.67,120.41 C109.78,121.82 112.40,124.33 113.50,126.00 C114.60,127.67 116.98,129.57 118.78,130.23 C120.75,130.95 122.29,132.31 122.62,133.63 C122.93,134.84 124.48,136.37 126.09,137.04 C127.69,137.70 129.00,138.67 129.00,139.19 C129.00,140.63 131.55,142.88 134.42,143.97 C136.20,144.65 137.00,145.69 137.00,147.34 C137.00,149.02 138.18,150.52 140.98,152.37 C143.17,153.82 145.61,155.00 146.41,155.00 C148.38,155.00 152.00,159.79 152.00,162.41 C152.00,165.31 140.34,182.96 136.00,186.63 C134.07,188.26 131.15,190.43 129.50,191.45 C127.85,192.48 126.13,193.94 125.68,194.69 C125.23,195.45 123.09,196.78 120.93,197.64 C118.77,198.51 117.00,199.55 117.00,199.96 C117.00,200.36 115.20,201.51 113.00,202.50 C110.80,203.49 109.00,204.69 109.00,205.15 C109.00,205.62 108.39,206.00 107.63,206.00 C106.88,206.00 105.19,206.85 103.87,207.88 C101.85,209.48 98.60,211.34 86.00,218.11 C85.18,218.56 81.46,220.34 77.74,222.07 C74.03,223.80 70.76,225.58 70.48,226.03 C70.20,226.48 68.63,227.14 66.99,227.50 C65.34,227.86 64.00,228.57 64.00,229.08 C64.00,229.59 63.38,230.00 62.62,230.00 C61.86,230.00 60.68,230.68 60.00,231.50 C58.96,232.75 59.11,233.00 60.89,233.00 C62.07,233.00 63.81,232.60 64.76,232.11 C68.28,230.32 76.65,227.07 82.00,225.43 C85.03,224.50 88.62,223.14 90.00,222.42 C94.05,220.28 107.55,216.02 112.38,215.36 C118.08,214.58 120.98,215.33 124.33,218.43 C128.87,222.63 127.60,227.57 117.89,243.39 C116.24,246.08 115.12,248.86 115.39,249.57 C115.66,250.27 115.28,251.36 114.54,251.97 C113.02,253.23 108.00,263.10 108.00,264.82 C108.00,267.22 111.01,264.61 113.01,260.47 ZM 107.00 270.45 C107.00,267.85 105.34,268.15 103.63,271.06 C101.38,274.86 102.59,277.22 105.16,274.05 C106.17,272.80 107.00,271.18 107.00,270.45 ZM 84.03 315.45 C84.18,314.59 84.94,312.18 85.93,309.25 C85.34,311.45 84.59,313.91 84.25,314.81 C84.16,315.06 84.08,315.28 84.03,315.45 ZM 58.52 44.70 C58.45,44.45 58.39,44.22 58.35,44.01 C57.92,41.83 57.85,41.10 58.58,41.04 C58.18,41.50 58.13,42.88 58.52,44.70 ZM 24.33 245.95 L 22.50 246.13 L 24.66 245.09 C23.78,245.61 23.71,245.86 24.33,245.95 ZM 89.18 308.32 C87.59,311.44 85.76,314.30 84.76,315.42 C85.77,314.14 87.55,311.29 89.40,307.90 C89.32,308.04 89.25,308.18 89.18,308.32 ZM 247.64 91.31 C247.52,91.18 247.00,91.17 246.29,91.26 L 248.20 90.73 L 247.74 91.43 C247.72,91.39 247.68,91.35 247.64,91.31 ZM 134.72 150.41 C134.48,150.32 134.25,150.19 134.05,150.03 C134.07,150.04 134.10,150.06 134.12,150.08 C134.34,150.21 134.54,150.32 134.72,150.41 Z" fill="rgb(21,116,220)"/>
<path d="M 199.80 192.18 C201.64,193.05 203.10,193.57 203.37,193.30 C203.71,192.96 204.92,193.52 206.05,194.55 C207.75,196.09 208.45,196.20 210.06,195.20 C211.13,194.53 212.00,194.37 212.00,194.85 C212.00,195.32 213.14,196.94 214.54,198.45 C215.93,199.95 216.82,200.57 217.57,200.48 C216.30,201.17 215.49,200.87 213.73,199.21 C212.43,198.00 210.24,197.00 208.86,197.00 C207.48,197.00 204.59,195.66 202.43,194.03 C201.51,193.33 200.59,192.69 199.80,192.18 ZM 58.52 44.70 C58.56,44.85 58.59,45.02 58.63,45.18 L 58.76 45.70 C57.80,43.53 57.17,41.54 57.46,41.06 C57.75,40.59 57.39,38.70 56.65,36.86 C55.92,35.01 55.36,31.48 55.41,29.00 C55.41,28.97 55.41,28.95 55.41,28.92 C56.22,32.30 58.73,37.83 60.75,40.18 C62.04,41.69 61.96,41.80 59.94,41.27 C59.78,41.23 59.63,41.19 59.49,41.16 C59.10,40.80 58.79,40.79 58.58,41.04 C57.85,41.10 57.92,41.83 58.35,44.01 C58.39,44.22 58.45,44.45 58.52,44.70 ZM 235.48 119.97 C238.35,114.25 240.33,108.99 240.65,106.23 C240.99,103.18 242.42,99.59 244.69,96.12 L 246.97 92.62 C247.25,92.47 247.48,92.30 247.63,92.12 C247.61,92.37 247.56,92.67 247.49,93.04 C247.26,94.27 246.47,96.00 245.74,96.89 C243.97,99.05 240.89,105.92 240.34,108.94 C240.11,110.20 237.98,115.02 235.48,119.97 ZM 303.52 230.01 C304.07,229.47 305.57,229.64 308.15,230.55 C313.56,232.46 318.90,232.43 319.64,230.49 C319.84,229.97 318.73,228.30 316.28,225.43 C319.14,228.67 320.88,230.87 320.77,231.20 C319.83,234.01 315.22,234.18 309.85,231.61 C306.28,229.91 304.50,229.45 303.52,230.01 ZM 300.06 208.13 C288.09,195.29 278.35,182.89 269.69,169.46 C278.28,182.78 287.94,195.08 300.06,208.13 ZM 59.57 47.41 L 59.58 47.36 C60.14,48.54 60.83,49.71 61.51,50.60 C61.81,51.00 62.10,51.43 62.37,51.87 C61.58,51.07 60.51,49.30 59.57,47.41 ZM 193.89 188.86 C194.98,189.58 196.26,190.34 197.52,191.02 C196.98,190.92 195.46,190.01 193.89,188.86 ZM 293.97 228.00 C296.36,229.50 298.91,230.48 300.78,230.74 C298.95,230.59 296.55,229.64 293.97,228.00 ZM 56.14 24.90 C56.46,24.58 56.94,24.50 57.63,24.50 C57.01,24.50 56.52,24.63 56.14,24.90 ZM 218.70 199.89 C219.08,199.69 219.46,199.70 219.90,199.96 C219.50,199.75 219.13,199.74 218.70,199.89 Z" fill="rgb(174,221,252)"/>
<path d="M 90.39 322.86 C86.07,327.90 81.75,328.49 78.03,324.53 C76.01,322.38 75.78,321.38 76.28,316.60 C76.59,313.60 77.51,309.64 78.34,307.82 C79.16,305.99 80.53,301.64 81.37,298.15 C82.22,294.66 84.34,289.58 86.09,286.87 C87.83,284.15 88.99,281.65 88.66,281.33 C88.33,281.00 89.85,277.40 92.03,273.32 C94.21,269.25 96.00,265.35 96.00,264.65 C96.00,262.29 106.70,242.10 109.86,238.50 C112.09,235.97 113.00,233.92 113.00,231.47 C113.00,228.30 112.75,228.00 110.06,228.00 C108.44,228.00 106.84,228.45 106.50,229.00 C106.16,229.55 104.90,230.00 103.69,230.01 C102.49,230.02 99.03,231.19 96.00,232.62 C90.04,235.43 52.16,249.24 40.00,253.04 C35.18,254.54 29.89,255.40 25.19,255.44 C18.55,255.49 17.71,255.27 15.92,253.00 C12.70,248.90 15.31,240.81 20.19,239.76 C21.46,239.48 23.40,238.93 24.50,238.53 C26.10,237.95 26.20,238.03 25.00,238.89 C23.80,239.75 24.12,239.97 26.60,239.98 C29.96,240.00 34.21,236.57 31.82,235.77 C30.80,235.43 30.85,235.03 32.03,233.92 C34.05,232.03 36.00,231.70 36.02,233.25 C36.03,234.25 36.19,234.25 36.82,233.25 C37.26,232.57 38.82,231.91 40.31,231.79 C41.79,231.66 43.00,230.98 43.00,230.26 C43.00,229.54 44.24,228.47 45.75,227.88 C49.07,226.59 54.05,226.10 53.42,227.14 C53.16,227.54 53.87,227.81 54.98,227.73 C56.09,227.64 57.26,226.77 57.57,225.79 C57.88,224.80 59.00,224.00 60.07,224.00 C61.13,224.00 62.00,223.48 62.00,222.83 C62.00,222.19 62.28,221.94 62.61,222.28 C62.95,222.61 64.36,221.53 65.76,219.87 C67.68,217.59 68.50,217.18 69.13,218.18 C69.76,219.17 69.97,219.05 69.98,217.69 C69.99,216.70 70.45,216.16 71.00,216.50 C71.55,216.84 72.00,216.61 72.00,216.00 C72.00,215.39 72.45,215.16 73.00,215.50 C73.55,215.84 74.00,215.66 74.00,215.11 C74.00,214.44 74.97,214.44 76.92,215.12 C79.16,215.90 80.54,215.77 82.92,214.54 C86.13,212.88 87.40,209.25 84.36,210.42 C82.96,210.95 82.91,210.81 84.04,209.45 C84.77,208.58 86.18,208.08 87.18,208.34 C88.31,208.63 88.75,208.41 88.34,207.74 C87.91,207.05 88.29,206.90 89.39,207.32 C90.34,207.68 90.85,207.57 90.54,207.06 C90.22,206.55 90.42,205.86 90.98,205.51 C91.54,205.16 92.00,205.31 92.00,205.82 C92.00,206.34 92.90,207.00 94.00,207.29 C95.10,207.58 95.77,207.44 95.49,206.98 C95.20,206.52 95.47,205.83 96.09,205.44 C96.91,204.94 96.89,204.55 96.01,204.01 C95.20,203.51 95.83,202.55 97.97,201.02 C99.70,199.79 101.39,199.05 101.72,199.38 C102.05,199.72 102.95,199.09 103.72,197.99 C105.38,195.62 106.88,195.46 108.39,197.49 C109.24,198.63 110.22,198.77 112.50,198.08 C114.15,197.58 114.91,197.13 114.19,197.09 C113.47,197.04 113.16,196.55 113.50,196.00 C113.84,195.45 113.42,195.00 112.56,195.00 C109.52,195.00 111.31,192.09 115.20,190.71 C116.30,190.31 116.73,190.53 116.42,191.34 C115.86,192.81 119.68,193.32 120.57,191.89 C120.90,191.35 120.62,190.25 119.95,189.44 C117.96,187.05 122.13,184.12 126.97,184.51 C130.09,184.76 130.75,184.52 130.30,183.34 C129.94,182.41 130.25,181.95 131.11,182.12 C131.88,182.27 133.51,182.05 134.75,181.63 C136.69,180.97 136.84,180.57 135.86,178.74 L 134.73 176.62 L 132.84 178.95 C131.80,180.23 130.62,180.96 130.23,180.56 C129.83,180.16 130.29,179.26 131.25,178.56 C133.89,176.63 138.00,170.17 138.00,167.96 C138.00,166.88 137.18,165.21 136.18,164.25 C135.18,163.29 129.00,157.55 122.44,151.50 C115.88,145.45 108.93,138.92 107.00,136.98 C105.08,135.04 101.47,131.84 98.99,129.86 C96.51,127.88 93.83,124.96 93.05,123.38 C92.27,121.79 89.52,118.45 86.94,115.94 C84.36,113.43 81.46,109.83 80.49,107.94 C79.53,106.05 75.76,100.06 72.12,94.63 C62.75,80.67 61.04,77.74 61.02,75.69 C61.01,74.70 59.17,69.97 56.94,65.19 C51.03,52.52 51.33,53.38 48.01,40.00 C46.33,33.24 46.25,24.35 47.85,22.80 C48.97,21.73 49.38,21.77 50.20,23.01 C51.03,24.28 51.83,23.93 55.21,20.81 L 59.24 17.09 L 64.96 19.98 C70.66,22.86 75.46,28.01 73.16,28.78 C72.35,29.05 72.31,29.72 73.04,31.08 C74.43,33.67 77.00,33.59 76.49,30.97 C76.06,28.73 76.62,28.91 81.68,32.65 C83.43,33.94 85.23,35.00 85.68,35.01 C87.51,35.03 96.13,43.98 95.43,45.12 C94.96,45.87 95.12,46.04 95.84,45.60 C96.98,44.90 101.80,47.10 105.26,49.90 C106.22,50.68 108.02,51.84 109.26,52.47 C110.49,53.10 111.44,54.34 111.37,55.23 C111.30,56.14 111.79,56.63 112.50,56.36 C113.18,56.10 114.36,56.50 115.12,57.25 C115.88,58.00 117.28,58.91 118.23,59.27 C119.28,59.66 119.73,60.53 119.38,61.46 C119.05,62.31 119.31,63.00 119.95,63.00 C120.59,63.00 120.84,62.55 120.50,62.00 C120.16,61.45 120.15,61.00 120.47,61.00 C122.01,61.00 127.75,63.97 129.90,65.87 C131.22,67.04 132.89,68.00 133.60,68.00 C135.81,68.00 140.26,72.76 139.40,74.20 C138.76,75.25 138.91,75.26 140.17,74.24 C141.43,73.22 142.37,73.26 145.11,74.45 C147.93,75.67 147.73,76.59 144.75,76.12 C143.55,75.93 143.88,77.66 145.25,78.76 C145.94,79.32 148.01,80.09 149.85,80.49 C152.95,81.15 153.15,81.04 152.52,79.05 C151.85,76.95 151.91,76.94 155.42,78.40 C157.39,79.22 159.00,79.63 159.00,79.29 C159.00,78.96 159.79,79.36 160.75,80.18 C161.71,81.00 163.85,82.20 165.51,82.86 C169.09,84.27 175.41,89.94 174.42,90.86 C174.04,91.21 173.53,90.94 173.28,90.25 C173.03,89.56 172.08,89.01 171.17,89.02 C170.16,89.02 169.92,89.32 170.56,89.77 C171.14,90.17 172.38,91.61 173.31,92.97 C174.65,94.94 175.00,95.08 175.00,93.69 C175.00,91.32 176.99,92.49 183.90,98.93 C186.54,101.40 187.89,102.82 189.40,103.04 C191.23,103.31 193.31,101.84 198.22,98.38 C198.70,98.04 199.20,97.69 199.73,97.32 C205.16,93.51 205.66,93.34 205.26,95.40 C204.73,98.19 207.24,98.49 209.57,95.92 C211.02,94.32 210.98,94.13 209.07,93.52 C205.35,92.34 207.39,90.00 212.14,90.00 C213.23,90.00 213.87,89.59 213.56,89.10 C213.25,88.60 214.29,87.74 215.87,87.19 C218.24,86.37 218.72,86.46 218.62,87.74 C218.45,89.91 220.23,90.29 222.54,88.56 C224.44,87.14 224.43,87.12 222.25,87.67 C220.61,88.08 220.00,87.79 220.00,86.62 C220.00,85.29 221.10,85.02 226.25,85.14 C229.69,85.21 231.38,85.48 230.00,85.73 C228.62,85.98 226.92,86.67 226.20,87.26 C224.48,88.67 226.41,89.96 230.25,89.98 C231.76,89.99 233.00,90.41 233.00,90.91 C233.00,91.40 234.13,91.29 235.52,90.66 L 238.04 89.50 L 235.95 87.79 C233.87,86.07 233.87,86.07 236.68,85.35 C238.23,84.95 241.83,84.60 244.67,84.56 C248.77,84.51 250.35,84.99 252.33,86.84 C257.22,91.44 256.96,93.80 249.95,108.50 C245.68,117.47 243.06,124.20 242.31,128.16 C241.89,130.33 242.66,131.66 246.46,135.41 C250.72,139.61 252.12,140.45 254.25,140.12 C254.66,140.05 255.00,140.45 255.00,141.00 C255.00,141.55 255.34,141.91 255.75,141.80 C257.16,141.43 261.00,143.13 261.00,144.13 C261.00,144.67 261.45,144.84 262.00,144.50 C262.55,144.16 263.00,144.41 263.00,145.06 C263.00,145.71 264.35,147.77 266.00,149.65 C267.65,151.53 269.00,153.69 269.00,154.46 C269.00,155.22 270.64,157.99 272.64,160.61 C274.64,163.23 277.62,167.65 279.26,170.44 C280.90,173.22 283.53,176.98 285.12,178.78 C286.70,180.59 288.00,182.48 288.00,182.99 C288.00,183.50 289.12,185.57 290.50,187.60 C293.16,191.52 293.74,193.57 291.85,192.40 C291.12,191.96 290.96,192.13 291.41,192.86 C291.81,193.51 292.50,193.81 292.95,193.53 C294.40,192.64 299.19,197.17 298.71,198.98 C298.37,200.29 298.83,200.63 300.63,200.44 C302.42,200.24 303.66,201.17 305.78,204.34 C307.32,206.63 309.23,208.50 310.04,208.50 C310.84,208.50 311.50,209.02 311.50,209.67 C311.50,210.31 311.84,211.17 312.25,211.58 C313.41,212.74 313.14,214.20 311.90,213.44 C311.14,212.97 311.16,213.42 311.95,214.91 C312.59,216.10 313.64,216.98 314.30,216.87 C316.09,216.59 319.00,218.07 319.00,219.26 C319.00,219.84 317.99,219.46 316.75,218.41 C314.72,216.70 314.74,216.79 316.92,219.26 C319.34,222.00 320.67,222.89 319.50,221.00 C318.31,219.08 320.53,220.03 323.84,222.86 C326.47,225.11 327.28,226.66 327.63,230.11 C328.28,236.64 327.48,238.48 323.17,240.42 C319.75,241.97 318.03,242.05 308.40,241.15 C302.40,240.60 296.38,239.88 295.00,239.57 C293.62,239.26 290.78,238.76 288.68,238.47 C283.27,237.72 273.97,235.21 272.63,234.15 C271.52,233.27 264.92,231.70 262.00,231.61 C261.17,231.59 260.27,231.33 260.00,231.03 C258.80,229.75 254.94,228.07 250.88,227.05 C248.47,226.45 244.25,224.88 241.50,223.56 C238.75,222.24 230.43,218.23 223.00,214.65 C215.57,211.07 208.31,207.85 206.85,207.49 C205.39,207.13 203.27,205.97 202.14,204.92 C201.01,203.86 199.61,203.00 199.04,203.00 C198.46,203.00 196.31,202.10 194.26,201.00 C192.21,199.90 189.65,199.00 188.57,199.00 C186.48,199.00 171.72,205.99 171.17,207.25 C170.98,207.66 170.26,208.00 169.57,208.00 C167.61,208.00 159.99,213.85 159.20,215.97 C158.82,217.00 155.24,221.27 151.25,225.45 C147.26,229.62 144.00,233.67 144.00,234.44 C144.00,235.22 142.95,237.12 141.66,238.67 C138.50,242.49 128.84,256.49 127.08,259.81 C126.30,261.28 125.09,263.05 124.39,263.75 C123.70,264.44 122.82,266.02 122.43,267.26 C122.05,268.49 120.50,270.92 118.99,272.65 C117.48,274.38 114.83,278.65 113.10,282.15 C111.37,285.64 107.29,293.00 104.02,298.50 C100.76,304.00 97.52,309.85 96.84,311.50 C96.15,313.15 95.00,315.10 94.28,315.83 C93.57,316.56 93.20,317.51 93.46,317.94 C93.72,318.36 92.34,320.58 90.39,322.86 ZM 90.34 306.12 C90.88,305.08 91.33,304.19 91.72,303.41 C110.40,267.70 133.15,232.56 151.95,210.50 C156.25,205.46 167.68,197.01 170.21,197.00 C170.61,197.00 175.27,194.50 180.57,191.44 C189.17,186.47 190.38,186.03 191.85,187.34 C192.37,187.80 193.08,188.32 193.89,188.86 C195.46,190.01 196.98,190.92 197.52,191.02 C198.30,191.44 199.08,191.84 199.80,192.18 C200.59,192.69 201.51,193.33 202.43,194.03 C204.59,195.66 207.48,197.00 208.86,197.00 C210.24,197.00 212.43,198.00 213.73,199.21 C215.49,200.87 216.30,201.17 217.57,200.48 C217.85,200.45 218.11,200.33 218.36,200.11 C218.48,200.02 218.59,199.94 218.70,199.89 C219.13,199.74 219.50,199.75 219.90,199.96 C220.45,200.28 221.09,200.98 221.93,202.12 C223.78,204.62 224.76,205.12 227.16,204.76 C229.29,204.45 230.38,204.84 231.08,206.16 C232.36,208.54 237.76,211.30 239.71,210.56 C240.63,210.21 242.77,211.36 245.12,213.49 C249.27,217.24 252.41,217.98 253.39,215.43 C253.87,214.17 255.13,214.75 259.81,218.43 C265.21,222.67 270.00,224.35 270.00,222.00 C270.00,220.25 273.21,220.92 276.41,223.35 C278.11,224.64 281.26,226.27 283.42,226.98 C286.82,228.10 287.49,228.06 288.50,226.67 C289.54,225.25 290.04,225.34 293.31,227.56 C293.53,227.71 293.75,227.86 293.97,228.00 C296.55,229.64 298.95,230.59 300.78,230.74 C302.07,230.92 303.04,230.75 303.40,230.15 C303.44,230.10 303.47,230.06 303.52,230.01 C304.50,229.45 306.28,229.91 309.85,231.61 C315.22,234.18 319.83,234.01 320.77,231.20 C320.88,230.87 319.14,228.67 316.28,225.43 C313.90,222.65 310.27,218.75 305.36,213.70 C303.54,211.83 301.78,209.98 300.06,208.13 L 300.05 208.13 C287.94,195.08 278.28,182.78 269.69,169.46 C268.21,167.16 266.77,164.83 265.35,162.47 C256.86,148.36 251.75,143.15 243.42,140.11 C232.19,136.02 230.00,134.81 230.00,132.67 C230.00,131.55 232.28,126.21 235.06,120.80 C235.20,120.52 235.34,120.24 235.48,119.97 C237.98,115.02 240.11,110.20 240.34,108.94 C240.89,105.92 243.97,99.05 245.74,96.89 C246.47,96.00 247.26,94.27 247.49,93.04 C247.56,92.67 247.61,92.37 247.63,92.12 C247.83,91.90 247.88,91.66 247.74,91.43 L 248.20 90.73 L 246.29 91.26 C245.74,91.32 245.08,91.44 244.40,91.61 C244.17,91.67 243.96,91.73 243.76,91.78 C241.14,92.09 236.26,92.35 231.50,92.40 C221.28,92.49 220.12,92.71 215.16,95.46 C212.23,97.08 206.26,101.69 201.91,105.71 C197.55,109.72 193.20,113.00 192.24,113.00 C188.80,112.99 182.25,107.80 174.49,98.93 C169.07,92.72 163.66,89.17 152.57,84.54 C130.59,75.36 113.52,64.83 80.63,40.16 C68.96,31.40 58.81,24.50 57.63,24.50 C56.94,24.50 56.46,24.58 56.14,24.90 C55.62,25.26 55.30,25.88 55.18,26.78 C55.11,27.28 55.20,28.02 55.41,28.92 C55.41,28.95 55.41,28.97 55.41,29.00 C55.36,31.48 55.92,35.01 56.65,36.86 C57.39,38.70 57.75,40.59 57.46,41.06 C57.17,41.54 57.80,43.53 58.76,45.70 L 59.46 48.50 L 59.57 47.41 C60.51,49.30 61.58,51.07 62.37,51.87 C63.32,53.44 64.01,55.19 64.02,56.18 C64.03,57.46 65.32,60.83 66.89,63.68 C68.61,66.79 69.38,69.22 68.84,69.76 C68.15,70.45 68.22,71.66 69.03,73.34 C69.26,74.21 69.63,75.06 70.14,75.67 C70.18,75.71 70.21,75.76 70.25,75.80 C70.73,76.38 71.04,76.75 71.22,76.80 C72.21,78.14 73.47,79.64 74.98,81.29 C77.82,84.40 79.90,87.35 79.59,87.85 C79.08,88.67 86.47,98.04 88.25,98.83 C88.63,99.00 88.95,99.98 89.00,101.06 C88.91,101.86 89.15,103.20 89.74,104.67 C90.08,105.52 90.28,105.90 90.44,105.77 C91.83,108.16 94.08,110.42 96.44,111.54 C98.94,112.72 100.00,113.89 100.00,115.44 C100.00,117.94 102.96,120.99 107.75,123.41 C109.54,124.31 111.00,125.71 111.00,126.52 C111.00,127.33 112.82,129.31 115.05,130.92 C117.27,132.53 119.99,134.98 121.07,136.37 C122.16,137.75 123.92,139.16 124.97,139.49 C126.03,139.83 127.15,140.91 127.47,141.89 C127.78,142.87 129.15,144.28 130.52,145.01 C131.88,145.74 133.00,147.13 133.00,148.10 C133.00,148.72 133.33,149.37 133.84,149.85 C133.90,149.91 133.97,149.97 134.05,150.03 C134.25,150.19 134.48,150.32 134.72,150.41 C134.89,150.49 135.04,150.55 135.17,150.58 C136.34,151.12 138.64,152.78 140.59,154.51 C142.74,156.43 144.99,158.00 145.60,158.00 C146.20,158.00 147.51,158.91 148.51,160.01 C150.28,161.97 150.28,162.14 148.42,165.44 C142.32,176.30 139.83,179.91 136.30,183.03 C129.29,189.22 124.07,193.31 120.51,195.43 C118.59,196.57 112.17,200.56 106.26,204.29 C96.93,210.18 45.31,236.71 41.77,237.43 C40.74,237.64 37.08,239.21 31.69,241.73 C30.92,242.06 29.90,242.53 28.54,243.17 C28.32,243.27 28.09,243.38 27.85,243.49 C26.33,244.20 25.28,244.71 24.66,245.09 L 22.50 246.13 L 24.33 245.95 C24.53,245.98 24.79,245.99 25.12,245.99 C26.57,246.00 29.16,245.72 30.88,245.38 C31.40,245.27 31.85,245.15 32.24,245.00 C40.48,243.43 54.60,238.64 82.21,228.17 C109.83,217.70 114.34,216.51 119.70,218.27 C126.01,220.34 126.19,223.14 120.72,234.18 C114.61,246.49 104.22,266.02 102.99,267.51 C102.46,268.15 102.25,268.92 102.54,269.21 C102.83,269.49 101.29,273.05 99.13,277.11 C96.97,281.18 94.89,285.62 94.50,287.00 C94.12,288.38 92.74,291.80 91.43,294.62 C90.95,295.66 90.28,297.33 89.53,299.29 C89.39,299.60 89.24,299.94 89.08,300.31 C87.99,302.87 86.59,306.80 85.99,309.04 C85.97,309.11 85.95,309.18 85.93,309.25 C84.94,312.18 84.18,314.59 84.03,315.45 C83.73,316.45 84.05,316.32 84.76,315.42 C85.76,314.30 87.59,311.44 89.18,308.32 C89.25,308.18 89.32,308.04 89.40,307.90 C89.71,307.32 90.03,306.72 90.34,306.12 ZM 18.43 248.68 C20.43,251.08 23.00,251.79 23.00,249.94 C23.00,249.36 23.56,249.20 24.25,249.60 C24.94,249.99 24.38,249.20 23.00,247.84 C21.62,246.48 20.05,245.59 19.50,245.87 C18.95,246.15 19.07,245.68 19.78,244.81 C20.83,243.51 20.77,243.13 19.44,242.62 C17.21,241.76 16.78,241.84 17.50,243.00 C17.84,243.55 17.64,244.00 17.06,244.00 C15.58,244.00 16.15,245.94 18.43,248.68 ZM 80.46 320.89 C81.60,324.46 84.70,323.42 86.73,318.79 C87.60,316.80 87.62,315.89 86.81,315.38 C86.17,314.99 85.97,315.14 86.33,315.73 C86.69,316.30 86.08,317.01 84.99,317.29 C83.88,317.58 83.00,317.32 83.00,316.69 C83.00,316.07 82.29,316.28 81.40,317.17 C80.37,318.20 80.04,319.54 80.46,320.89 ZM 265.00 226.50 C266.39,228.17 270.72,228.47 272.97,227.04 C274.21,226.26 274.13,225.99 272.47,225.38 C271.39,224.97 270.17,224.16 269.77,223.57 C269.27,222.85 269.03,222.91 269.02,223.75 C269.01,224.44 267.82,225.00 266.38,225.00 C264.16,225.00 263.95,225.23 265.00,226.50 ZM 59.45 58.20 C60.05,59.61 60.51,59.70 62.09,58.71 C64.47,57.22 64.55,55.43 62.25,54.62 C61.29,54.28 60.01,53.76 59.42,53.47 C58.25,52.90 58.27,55.43 59.45,58.20 ZM 190.86 193.63 C193.41,194.25 195.60,194.82 195.72,194.88 C195.84,194.95 195.67,194.31 195.35,193.47 C194.44,191.09 191.52,189.90 190.01,191.30 C188.99,192.24 188.86,192.23 189.41,191.25 C189.80,190.56 189.85,190.00 189.52,190.00 C189.19,190.00 188.31,190.56 187.57,191.25 C186.47,192.27 187.07,192.71 190.86,193.63 ZM 98.73 267.40 C99.05,267.71 100.36,266.54 101.65,264.79 C103.74,261.97 104.22,260.61 103.91,258.36 C103.87,258.01 104.43,257.30 105.16,256.79 C106.28,256.00 106.28,255.91 105.16,256.20 C103.59,256.62 97.89,266.55 98.73,267.40 ZM 244.00 218.00 C244.00,218.55 245.12,219.00 246.50,219.00 C247.88,219.00 249.00,218.85 249.00,218.66 C249.00,217.87 239.94,213.73 239.39,214.27 C238.37,215.30 240.03,217.00 242.06,217.00 C243.13,217.00 244.00,217.45 244.00,218.00 ZM 322.50 230.61 C323.05,231.26 323.80,231.61 324.16,231.39 C325.07,230.84 323.96,227.00 322.88,227.00 C322.40,227.00 322.05,226.66 322.12,226.25 C322.40,224.45 321.93,223.00 321.06,223.00 C319.75,223.00 320.82,228.61 322.50,230.61 ZM 48.68 242.92 C48.17,243.43 48.90,243.74 50.40,243.65 C51.83,243.57 53.00,243.16 53.00,242.75 C53.00,242.34 53.34,242.09 53.75,242.20 C55.04,242.54 59.00,240.91 59.00,240.03 C59.00,239.07 50.01,241.59 48.68,242.92 ZM 96.00 226.02 C96.00,227.60 105.22,225.06 106.40,223.15 C107.10,222.02 103.08,222.84 101.36,224.18 C100.73,224.67 99.83,225.00 99.36,224.92 C97.46,224.58 96.00,225.06 96.00,226.02 ZM 248.57 91.43 C249.34,94.51 251.35,94.35 251.82,91.17 C252.01,89.86 251.49,88.74 250.53,88.37 C248.30,87.52 247.79,88.31 248.57,91.43 ZM 225.75 210.31 C228.60,211.05 229.00,211.04 229.00,210.20 C229.00,207.54 223.78,205.92 222.40,208.15 C221.96,208.87 222.13,209.04 222.85,208.60 C223.48,208.20 224.00,208.33 224.00,208.87 C224.00,209.41 224.79,210.06 225.75,210.31 ZM 143.50 164.01 C143.86,165.12 144.57,165.77 145.09,165.45 C145.61,165.12 145.70,164.33 145.29,163.68 C144.89,163.03 144.54,161.83 144.53,161.02 C144.49,158.98 141.00,158.40 141.00,160.43 C141.00,161.29 141.42,162.00 141.93,162.00 C142.45,162.00 143.15,162.91 143.50,164.01 ZM 128.36 70.13 C129.19,70.73 133.00,70.14 133.00,69.41 C133.00,69.21 131.70,68.38 130.12,67.56 C127.48,66.20 127.25,66.21 127.37,67.78 C127.44,68.73 127.89,69.78 128.36,70.13 ZM 119.75 227.43 C120.16,227.85 120.65,227.21 120.83,226.01 C121.15,223.94 118.09,220.51 117.00,221.72 C116.73,222.02 117.06,222.47 117.75,222.72 C118.44,222.97 119.00,223.95 119.00,224.92 C119.00,225.88 119.34,227.01 119.75,227.43 ZM 197.59 104.15 C198.47,105.58 199.87,105.11 201.00,103.01 C201.99,101.16 201.88,101.10 199.56,102.15 C198.19,102.78 197.30,103.68 197.59,104.15 ZM 314.00 236.00 C312.83,236.76 313.11,236.97 315.25,236.98 C316.76,236.99 318.00,236.55 318.00,236.00 C318.00,234.74 315.96,234.74 314.00,236.00 ZM 252.00 220.53 C252.00,221.34 252.68,222.00 253.50,222.00 C254.32,222.00 255.00,221.60 255.00,221.11 C255.00,220.62 254.32,219.95 253.50,219.64 C252.59,219.29 252.00,219.64 252.00,220.53 ZM 265.46 158.93 C265.82,159.52 266.88,159.99 267.81,159.97 C269.29,159.94 269.26,159.76 267.57,158.48 C265.52,156.92 264.37,157.17 265.46,158.93 ZM 159.00 84.06 C159.00,85.20 161.69,85.32 162.37,84.21 C162.64,83.77 161.99,83.35 160.93,83.27 C159.87,83.19 159.00,83.55 159.00,84.06 Z" fill="rgb(237,244,245)"/>
<path d="M 0.00 170.50 L 0.00 0.00 L 170.50 0.00 L 341.00 0.00 L 341.00 170.50 L 341.00 341.00 L 170.50 341.00 L 0.00 341.00 L 0.00 170.50 ZM 90.39 322.86 C92.34,320.58 93.72,318.36 93.46,317.94 C93.20,317.51 93.57,316.56 94.28,315.83 C95.00,315.10 96.15,313.15 96.84,311.50 C97.52,309.85 100.76,304.00 104.02,298.50 C107.29,293.00 111.37,285.64 113.10,282.15 C114.83,278.65 117.48,274.38 118.99,272.65 C120.50,270.92 122.05,268.49 122.43,267.26 C122.82,266.02 123.70,264.44 124.39,263.75 C125.09,263.05 126.30,261.28 127.08,259.81 C128.84,256.49 138.50,242.49 141.66,238.67 C142.95,237.12 144.00,235.22 144.00,234.44 C144.00,233.67 147.26,229.62 151.25,225.45 C155.24,221.27 158.82,217.00 159.20,215.97 C159.99,213.85 167.61,208.00 169.57,208.00 C170.26,208.00 170.98,207.66 171.17,207.25 C171.72,205.99 186.48,199.00 188.57,199.00 C189.65,199.00 192.21,199.90 194.26,201.00 C196.31,202.10 198.46,203.00 199.04,203.00 C199.61,203.00 201.01,203.86 202.14,204.92 C203.27,205.97 205.39,207.13 206.85,207.49 C208.31,207.85 215.57,211.07 223.00,214.65 C230.43,218.23 238.75,222.24 241.50,223.56 C244.25,224.88 248.47,226.45 250.88,227.05 C254.94,228.07 258.80,229.75 260.00,231.03 C260.27,231.33 261.17,231.59 262.00,231.61 C264.92,231.70 271.52,233.27 272.63,234.15 C273.97,235.21 283.27,237.72 288.68,238.47 C290.78,238.76 293.62,239.26 295.00,239.57 C296.38,239.88 302.40,240.60 308.40,241.15 C318.03,242.05 319.75,241.97 323.17,240.42 C327.48,238.48 328.28,236.64 327.63,230.11 C327.28,226.66 326.47,225.11 323.84,222.86 C320.53,220.03 318.31,219.08 319.50,221.00 C320.67,222.89 319.34,222.00 316.92,219.26 C314.74,216.79 314.72,216.70 316.75,218.41 C317.99,219.46 319.00,219.84 319.00,219.26 C319.00,218.07 316.09,216.59 314.30,216.87 C313.64,216.98 312.59,216.10 311.95,214.91 C311.16,213.42 311.14,212.97 311.90,213.44 C313.14,214.20 313.41,212.74 312.25,211.58 C311.84,211.17 311.50,210.31 311.50,209.67 C311.50,209.02 310.84,208.50 310.04,208.50 C309.23,208.50 307.32,206.63 305.78,204.34 C303.66,201.17 302.42,200.24 300.63,200.44 C298.83,200.63 298.37,200.29 298.71,198.98 C299.19,197.17 294.40,192.64 292.95,193.53 C292.50,193.81 291.81,193.51 291.41,192.86 C290.96,192.13 291.12,191.96 291.85,192.40 C293.74,193.57 293.16,191.52 290.50,187.60 C289.12,185.57 288.00,183.50 288.00,182.99 C288.00,182.48 286.70,180.59 285.12,178.78 C283.53,176.98 280.90,173.22 279.26,170.44 C277.62,167.65 274.64,163.23 272.64,160.61 C270.64,157.99 269.00,155.22 269.00,154.46 C269.00,153.69 267.65,151.53 266.00,149.65 C264.35,147.77 263.00,145.71 263.00,145.06 C263.00,144.41 262.55,144.16 262.00,144.50 C261.45,144.84 261.00,144.67 261.00,144.13 C261.00,143.13 257.16,141.43 255.75,141.80 C255.34,141.91 255.00,141.55 255.00,141.00 C255.00,140.45 254.66,140.05 254.25,140.12 C252.12,140.45 250.72,139.61 246.46,135.41 C242.66,131.66 241.89,130.33 242.31,128.16 C243.06,124.20 245.68,117.47 249.95,108.50 C256.96,93.80 257.22,91.44 252.33,86.84 C250.35,84.99 248.77,84.51 244.67,84.56 C241.83,84.60 238.23,84.95 236.68,85.35 C233.87,86.07 233.87,86.07 235.95,87.79 L 238.04 89.50 L 235.52 90.66 C234.13,91.29 233.00,91.40 233.00,90.91 C233.00,90.41 231.76,89.99 230.25,89.98 C226.41,89.96 224.48,88.67 226.20,87.26 C226.92,86.67 228.62,85.98 230.00,85.73 C231.38,85.48 229.69,85.21 226.25,85.14 C221.10,85.02 220.00,85.29 220.00,86.62 C220.00,87.79 220.61,88.08 222.25,87.67 C224.43,87.12 224.44,87.14 222.54,88.56 C220.23,90.29 218.45,89.91 218.62,87.74 C218.72,86.46 218.24,86.37 215.87,87.19 C214.29,87.74 213.25,88.60 213.56,89.10 C213.87,89.59 213.23,90.00 212.14,90.00 C207.39,90.00 205.35,92.34 209.07,93.52 C210.98,94.13 211.02,94.32 209.57,95.92 C207.24,98.49 204.73,98.19 205.26,95.40 C205.66,93.34 205.16,93.51 199.73,97.32 C189.15,104.74 190.04,104.65 183.90,98.93 C176.99,92.49 175.00,91.32 175.00,93.69 C175.00,95.08 174.65,94.94 173.31,92.97 C172.38,91.61 171.14,90.17 170.56,89.77 C169.92,89.32 170.16,89.02 171.17,89.02 C172.08,89.01 173.03,89.56 173.28,90.25 C173.53,90.94 174.04,91.21 174.42,90.86 C175.41,89.94 169.09,84.27 165.51,82.86 C163.85,82.20 161.71,81.00 160.75,80.18 C159.79,79.36 159.00,78.96 159.00,79.29 C159.00,79.63 157.39,79.22 155.42,78.40 C151.91,76.94 151.85,76.95 152.52,79.05 C153.15,81.04 152.95,81.15 149.85,80.49 C148.01,80.09 145.94,79.32 145.25,78.76 C143.88,77.66 143.55,75.93 144.75,76.12 C147.73,76.59 147.93,75.67 145.11,74.45 C142.37,73.26 141.43,73.22 140.17,74.24 C138.91,75.26 138.76,75.25 139.40,74.20 C140.26,72.76 135.81,68.00 133.60,68.00 C132.89,68.00 131.22,67.04 129.90,65.87 C127.75,63.97 122.01,61.00 120.47,61.00 C120.15,61.00 120.16,61.45 120.50,62.00 C120.84,62.55 120.59,63.00 119.95,63.00 C119.31,63.00 119.05,62.31 119.38,61.46 C119.73,60.53 119.28,59.66 118.23,59.27 C117.28,58.91 115.88,58.00 115.12,57.25 C114.36,56.50 113.18,56.10 112.50,56.36 C111.79,56.63 111.30,56.14 111.37,55.23 C111.44,54.34 110.49,53.10 109.26,52.47 C108.02,51.84 106.22,50.68 105.26,49.90 C101.80,47.10 96.98,44.90 95.84,45.60 C95.12,46.04 94.96,45.87 95.43,45.12 C96.13,43.98 87.51,35.03 85.68,35.01 C85.23,35.00 83.43,33.94 81.68,32.65 C76.62,28.91 76.06,28.73 76.49,30.97 C77.00,33.59 74.43,33.67 73.04,31.08 C72.31,29.72 72.35,29.05 73.16,28.78 C75.46,28.01 70.66,22.86 64.96,19.98 L 59.24 17.09 L 55.21 20.81 C51.83,23.93 51.03,24.28 50.20,23.01 C49.38,21.77 48.97,21.73 47.85,22.80 C46.25,24.35 46.33,33.24 48.01,40.00 C51.33,53.38 51.03,52.52 56.94,65.19 C59.17,69.97 61.01,74.70 61.02,75.69 C61.04,77.74 62.75,80.67 72.12,94.63 C75.76,100.06 79.53,106.05 80.49,107.94 C81.46,109.83 84.36,113.43 86.94,115.94 C89.52,118.45 92.27,121.79 93.05,123.38 C93.83,124.96 96.51,127.88 98.99,129.86 C101.47,131.84 105.08,135.04 107.00,136.98 C108.93,138.92 115.88,145.45 122.44,151.50 C129.00,157.55 135.18,163.29 136.18,164.25 C137.18,165.21 138.00,166.88 138.00,167.96 C138.00,170.17 133.89,176.63 131.25,178.56 C130.29,179.26 129.83,180.16 130.23,180.56 C130.62,180.96 131.80,180.23 132.84,178.95 L 134.73 176.62 L 135.86 178.74 C136.84,180.57 136.69,180.97 134.75,181.63 C133.51,182.05 131.88,182.27 131.11,182.12 C130.25,181.95 129.94,182.41 130.30,183.34 C130.75,184.52 130.09,184.76 126.97,184.51 C122.13,184.12 117.96,187.05 119.95,189.44 C120.62,190.25 120.90,191.35 120.57,191.89 C119.68,193.32 115.86,192.81 116.42,191.34 C116.73,190.53 116.30,190.31 115.20,190.71 C111.31,192.09 109.52,195.00 112.56,195.00 C113.42,195.00 113.84,195.45 113.50,196.00 C113.16,196.55 113.47,197.04 114.19,197.09 C114.91,197.13 114.15,197.58 112.50,198.08 C110.22,198.77 109.24,198.63 108.39,197.49 C106.88,195.46 105.38,195.62 103.72,197.99 C102.95,199.09 102.05,199.72 101.72,199.38 C101.39,199.05 99.70,199.79 97.97,201.02 C95.83,202.55 95.20,203.51 96.01,204.01 C96.89,204.55 96.91,204.94 96.09,205.44 C95.47,205.83 95.20,206.52 95.49,206.98 C95.77,207.44 95.10,207.58 94.00,207.29 C92.90,207.00 92.00,206.34 92.00,205.82 C92.00,205.31 91.54,205.16 90.98,205.51 C90.42,205.86 90.22,206.55 90.54,207.06 C90.85,207.57 90.34,207.68 89.39,207.32 C88.29,206.90 87.91,207.05 88.34,207.74 C88.75,208.41 88.31,208.63 87.18,208.34 C86.18,208.08 84.77,208.58 84.04,209.45 C82.91,210.81 82.96,210.95 84.36,210.42 C87.40,209.25 86.13,212.88 82.92,214.54 C80.54,215.77 79.16,215.90 76.92,215.12 C74.97,214.44 74.00,214.44 74.00,215.11 C74.00,215.66 73.55,215.84 73.00,215.50 C72.45,215.16 72.00,215.39 72.00,216.00 C72.00,216.61 71.55,216.84 71.00,216.50 C70.45,216.16 69.99,216.70 69.98,217.69 C69.97,219.05 69.76,219.17 69.13,218.18 C68.50,217.18 67.68,217.59 65.76,219.87 C64.36,221.53 62.95,222.61 62.61,222.28 C62.28,221.94 62.00,222.19 62.00,222.83 C62.00,223.48 61.13,224.00 60.07,224.00 C59.00,224.00 57.88,224.80 57.57,225.79 C57.26,226.77 56.09,227.64 54.98,227.73 C53.87,227.81 53.16,227.54 53.42,227.14 C54.05,226.10 49.07,226.59 45.75,227.88 C44.24,228.47 43.00,229.54 43.00,230.26 C43.00,230.98 41.79,231.66 40.31,231.79 C38.82,231.91 37.26,232.57 36.82,233.25 C36.19,234.25 36.03,234.25 36.02,233.25 C36.00,231.70 34.05,232.03 32.03,233.92 C30.85,235.03 30.80,235.43 31.82,235.77 C34.21,236.57 29.96,240.00 26.60,239.98 C24.12,239.97 23.80,239.75 25.00,238.89 C26.20,238.03 26.10,237.95 24.50,238.53 C23.40,238.93 21.46,239.48 20.19,239.76 C15.31,240.81 12.70,248.90 15.92,253.00 C17.71,255.27 18.55,255.49 25.19,255.44 C29.89,255.40 35.18,254.54 40.00,253.04 C52.16,249.24 90.04,235.43 96.00,232.62 C99.03,231.19 102.49,230.02 103.69,230.01 C104.90,230.00 106.16,229.55 106.50,229.00 C106.84,228.45 108.44,228.00 110.06,228.00 C112.75,228.00 113.00,228.30 113.00,231.47 C113.00,233.92 112.09,235.97 109.86,238.50 C106.70,242.10 96.00,262.29 96.00,264.65 C96.00,265.35 94.21,269.25 92.03,273.32 C89.85,277.40 88.33,281.00 88.66,281.33 C88.99,281.65 87.83,284.15 86.09,286.87 C84.34,289.58 82.22,294.66 81.37,298.15 C80.53,301.64 79.16,305.99 78.34,307.82 C77.51,309.64 76.59,313.60 76.28,316.60 C75.78,321.38 76.01,322.38 78.03,324.53 C81.75,328.49 86.07,327.90 90.39,322.86 ZM 80.46 320.89 C80.04,319.54 80.37,318.20 81.40,317.17 C82.29,316.28 83.00,316.07 83.00,316.69 C83.00,317.32 83.88,317.58 84.99,317.29 C86.08,317.01 86.69,316.30 86.33,315.73 C85.97,315.14 86.17,314.99 86.81,315.38 C87.62,315.89 87.60,316.80 86.73,318.79 C84.70,323.42 81.60,324.46 80.46,320.89 ZM 98.73 267.40 C97.89,266.55 103.59,256.62 105.16,256.20 C106.28,255.91 106.28,256.00 105.16,256.79 C104.43,257.30 103.87,258.01 103.91,258.36 C104.22,260.61 103.74,261.97 101.65,264.79 C100.36,266.54 99.05,267.71 98.73,267.40 ZM 18.43 248.68 C16.15,245.94 15.58,244.00 17.06,244.00 C17.64,244.00 17.84,243.55 17.50,243.00 C16.78,241.84 17.21,241.76 19.44,242.62 C20.77,243.13 20.83,243.51 19.78,244.81 C19.07,245.68 18.95,246.15 19.50,245.87 C20.05,245.59 21.62,246.48 23.00,247.84 C24.38,249.20 24.94,249.99 24.25,249.60 C23.56,249.20 23.00,249.36 23.00,249.94 C23.00,251.79 20.43,251.08 18.43,248.68 ZM 48.68 242.92 C50.01,241.59 59.00,239.07 59.00,240.03 C59.00,240.91 55.04,242.54 53.75,242.20 C53.34,242.09 53.00,242.34 53.00,242.75 C53.00,243.16 51.83,243.57 50.40,243.65 C48.90,243.74 48.17,243.43 48.68,242.92 ZM 314.00 236.00 C315.96,234.74 318.00,234.74 318.00,236.00 C318.00,236.55 316.76,236.99 315.25,236.98 C313.11,236.97 312.83,236.76 314.00,236.00 ZM 322.50 230.61 C320.82,228.61 319.75,223.00 321.06,223.00 C321.93,223.00 322.40,224.45 322.12,226.25 C322.05,226.66 322.40,227.00 322.88,227.00 C323.96,227.00 325.07,230.84 324.16,231.39 C323.80,231.61 323.05,231.26 322.50,230.61 ZM 119.75 227.43 C119.34,227.01 119.00,225.88 119.00,224.92 C119.00,223.95 118.44,222.97 117.75,222.72 C117.06,222.47 116.73,222.02 117.00,221.72 C118.09,220.51 121.15,223.94 120.83,226.01 C120.65,227.21 120.16,227.85 119.75,227.43 ZM 265.00 226.50 C263.95,225.23 264.16,225.00 266.38,225.00 C267.82,225.00 269.01,224.44 269.02,223.75 C269.03,222.91 269.27,222.85 269.77,223.57 C270.17,224.16 271.39,224.97 272.47,225.38 C274.13,225.99 274.21,226.26 272.97,227.04 C270.72,228.47 266.39,228.17 265.00,226.50 ZM 96.00 226.02 C96.00,225.06 97.46,224.58 99.36,224.92 C99.83,225.00 100.73,224.67 101.36,224.18 C103.08,222.84 107.10,222.02 106.40,223.15 C105.22,225.06 96.00,227.60 96.00,226.02 ZM 252.00 220.53 C252.00,219.64 252.59,219.29 253.50,219.64 C254.32,219.95 255.00,220.62 255.00,221.11 C255.00,221.60 254.32,222.00 253.50,222.00 C252.68,222.00 252.00,221.34 252.00,220.53 ZM 244.00 218.00 C244.00,217.45 243.13,217.00 242.06,217.00 C240.03,217.00 238.37,215.30 239.39,214.27 C239.94,213.73 249.00,217.87 249.00,218.66 C249.00,218.85 247.88,219.00 246.50,219.00 C245.12,219.00 244.00,218.55 244.00,218.00 ZM 225.75 210.31 C224.79,210.06 224.00,209.41 224.00,208.87 C224.00,208.33 223.48,208.20 222.85,208.60 C222.13,209.04 221.96,208.87 222.40,208.15 C223.78,205.92 229.00,207.54 229.00,210.20 C229.00,211.04 228.60,211.05 225.75,210.31 ZM 190.86 193.63 C187.07,192.71 186.47,192.27 187.57,191.25 C188.31,190.56 189.19,190.00 189.52,190.00 C189.85,190.00 189.80,190.56 189.41,191.25 C188.86,192.23 188.99,192.24 190.01,191.30 C191.52,189.90 194.44,191.09 195.35,193.47 C195.67,194.31 195.84,194.95 195.72,194.88 C195.60,194.82 193.41,194.25 190.86,193.63 ZM 143.50 164.01 C143.15,162.91 142.45,162.00 141.93,162.00 C141.42,162.00 141.00,161.29 141.00,160.43 C141.00,158.40 144.49,158.98 144.53,161.02 C144.54,161.83 144.89,163.03 145.29,163.68 C145.70,164.33 145.61,165.12 145.09,165.45 C144.57,165.77 143.86,165.12 143.50,164.01 ZM 265.46 158.93 C264.37,157.17 265.52,156.92 267.57,158.48 C269.26,159.76 269.29,159.94 267.81,159.97 C266.88,159.99 265.82,159.52 265.46,158.93 ZM 197.59 104.15 C197.30,103.68 198.19,102.78 199.56,102.15 C201.88,101.10 201.99,101.16 201.00,103.01 C199.87,105.11 198.47,105.58 197.59,104.15 ZM 248.57 91.43 C247.79,88.31 248.30,87.52 250.53,88.37 C251.49,88.74 252.01,89.86 251.82,91.17 C251.35,94.35 249.34,94.51 248.57,91.43 ZM 159.00 84.06 C159.00,83.55 159.87,83.19 160.93,83.27 C161.99,83.35 162.64,83.77 162.37,84.21 C161.69,85.32 159.00,85.20 159.00,84.06 ZM 128.36 70.13 C127.89,69.78 127.44,68.73 127.37,67.78 C127.25,66.21 127.48,66.20 130.12,67.56 C131.70,68.38 133.00,69.21 133.00,69.41 C133.00,70.14 129.19,70.73 128.36,70.13 ZM 59.45 58.20 C58.27,55.43 58.25,52.90 59.42,53.47 C60.01,53.76 61.29,54.28 62.25,54.62 C64.55,55.43 64.47,57.22 62.09,58.71 C60.51,59.70 60.05,59.61 59.45,58.20 Z" fill="rgb(254,254,254)"/>
</g>
</svg>